<svg width="2.7391in" height="1.8443in" version="1.1" viewBox="0 0 821.72 553.28" xmlns="http://www.w3.org/2000/svg">
 <path d="m401.15 466.99-24.888-4.4929c-10.258 2.082-6.0799 9.9172-26.666 9.972l-65.741-6.1092c-11.555-3.3696-6.3288-16.136-16.142-20.437l-10.56-2.1094-24.889-6.4927-35.555-3.671-76.443-10.492-28.444-5.0682h-16s-39.111-8.1913-39.111-8.1913c-6.0799-0.98623-26.808-2.356-30.453-8.246-6.8266-11.013 3.7333-29.395 9.6354-35.532 6.9154-7.1776 13.138-9.1227 17.884-21.725 2.6488-7.0406 4.0888-25.56 9.2621-35.477l32.782-44.655 23.04-33.34 11.04-17.314s11.84-15.095 11.84-15.095 36.355-55.942 36.355-55.942l25.671-37.313s41.386-71.119 41.386-71.119c4.7466-7.3146 13.529-22.437 19.555-24.93 4.6755-3.397 18.4 0.21917 24.889 0h24.888l19.555 2.6574h21.333l103.11-7.8625c20.071 0.38354 52.035 11.561 56.888 46.572 4.6932-8.3282 10.115-19.396 16-25.423 7.2354-7.3694 18.151-11.451 26.666-13.287 37.351-8.1091 64.87 13.314 99.554 25.971 18.471 6.7119 69.243 20.903 87.11 20.958h51.555c-1.76 17.752 6.7377 45.23 17.938 52.353 5.6888 3.6162 24.355 1.315 23.502 21.642-0.35559 8.1912-10.773 32.984-13.991 41.833l-18.24 51.284-10.009 32.875c-5.5466 13.725-14.88 29.834-15.2 46.572l-7.111 19.177c-4.2844 7.2872-5.2444 9.2597-5.3332 19.177l-21.333 49.312c-1.0488 9.9172-9.5643 33.477-13.013 43.833l-6.3288 21.916-9.3154 21.916-12.64 38.354c-5.9377 16.218-10.044 29.313-24.48 26.793l-16-6.8215-42.666-11.506s-28.444-7.9721-28.444-7.9721l-26.666-4.4381-37.333-11.424-53.333-16.355c-8.2132 0.0547-25.031 17.944-31.999 25.45-6.5955 7.0954-34.986 29.341-42.666 33.669v-8.2186c5.2977-9.2049 7.2177-15.04 7.111-27.396-14.898 6.6297-16.889 5.4791-32 5.4791 13.795-26.765 36.373-24.519 44.444-49.312z" fill="#eee" stroke="#000" stroke-width="8"/>
 <path id="Sélection" d="m475.53 87.678s43 8.2 43 8.2c4.35 0.87 16.89 2.8 20 4.65 5.27 3.15 13.48 13.38 18.04 18.15 3.74 3.91 15.64 15.71 17.4 20l5.08 27s17.15 46 17.15 46c2.17 6.24 0.78 15.4 0 22-0.63 4.09-1.62 9.36 0.81 12.99 1.57 2.34 6.21 6.01 8.52 8.06l11 9.32 31 14.33c4.98 2.24 10.68 3.95 15 7.3l-29-4 12 5s-37-6.61-37-6.61l-22-14.39-12.45 18-9.97 33-4.87 19 5.48 16 13.81 40c-2.3 0-8.81 0.27-10.61-0.57-2.27-1.06-3.56-4.29-4.64-6.43l-7.01-15-14.11-30c-0.6-2.12-0.6-3.84-0.63-6v-16l1-15v-5c0.11-9.21 8.64-33.74 11.72-44 1.71-5.7 6.04-15.46 3.92-21-3.95-10.28-9.98-7.43-15.26-12.41-7.32-6.91-2.95-11.56-16.38-11.59-5.36-0.01-10.81 0.47-16-1-0.63 2.77-1.64 8.08-4.42 9.43-2.75 1.33-9.21-0.36-12.17 1.59-1.87 1.24-2.8 4.01-3.72 5.98-1.71 3.66-6.16 12.49-7.04 16-0.82 3.24 0.8 15.01 1.18 19 0 0 3.42 46 3.42 46l-6.17 44-2.69 21c0.42 5.74 6.86 10.38 8.61 19-8.53 0-32.23 0.92-39-1l2.6-18-5.65-14-1.95-14-1.38-35-14.62-33-7.92 49c-1.18 7.12-1.96 18.21-6.02 24l-12.79 15c-2.38 2.78-7.71 9.41-10.36 11.3-4.29 3.07-16.73 4.94-18.89 8.13-1.25 1.84-1.01 5.38-1.02 7.57h-8c-1.89-0.04-3.96 0.02-5.62-1.02-3.15-1.97-10.79-16.25-10.88-19.98l2.5-16c5.91 0.13 19.29 3.97 23.17 2.31 9.71-4.16 6.2-12.93 5.11-21.31-0.69-5.35-1.59-17.68-3.27-22 0 0-17.01-30-17.01-30s-24 2.83-24 2.83c-3.66 0.36-8.55-0.29-11.28 2.68-2.05 2.24-3.72 11.99-4.59 15.49-0.85 3.4-3.58 13.12-3.51 16 0.08 3.38 3.13 10.52 4.43 14l10.76 27.71c2.13 2.9 10.92 9.76 14.19 12.54 2.07 1.76 5.12 3.9 5.36 6.84 0.25 3.13-2.51 9.06-5.49 10.31-1.7 0.72-4.97 0.6-6.87 0.6h-20c-8.51-0.12-10.2-3.18-16-9-2.27-2.27-5.36-5.18-6.84-8-1.4-2.67-2.87-11.55-3.56-15l-6.22-32c-1.58-6.53-6.74-10.4-11.37-14.99-1.87-1.87-4.17-5.11-7.18-4.02-1.26 0.46-6.39 4.55-7.83 5.64-3.07 2.31-9.2 6.44-11.15 9.46-1.73 2.69-2.23 7.67-2.77 10.91l-3.21 21c-0.6 4.28-3.04 15.39-2.08 19l11.21 20h-46s-4.49-57-4.49-57l2.36-16 7.26-50 2.95-23.42-8.08-26.58-1.83 23-1.26 19-1.82 19-3.09 31-1-39v-20l-1-16v-29l0.85-8 20.15-29s19.29-27 19.29-27l11.01-14.73 16.7-7.32 25-9.14 16-5.4 18 1.5 40 3.26 26 2.22 15-4.81 32-11.54 23-2 12.42-1.29s7.58-7.75 7.58-7.75z" fill="#8dc63f"/>
 <g>
  <text fill="black" font-family="'Noto Serif'" font-size="125px" style="line-height:1.25;shape-inside:url(#rect1419);white-space:pre" xml:space="preserve"/>
  <text x="171.71548" y="225.46684" fill="#000000" font-family="Spectral" font-size="125px" font-weight="bold" stroke-width="3.125" style="line-height:1.25" xml:space="preserve"><tspan x="171.71548" y="225.46684">Ensimag</tspan><tspan x="171.71548" y="384.90536">Stories</tspan></text>
  <text fill="black" font-family="sans-serif" font-size="125px" style="line-height:1.25;shape-inside:url(#rect1443);white-space:pre" xml:space="preserve"/>
 </g>
</svg>
